<svg xmlns="http://www.w3.org/2000/svg" width="100" height="75" viewBox="0 0 100 75" preserveAspectRatio="xMidYMid meet"><path fill="none" stroke="#6c757d99" stroke-width="2.5" d="M5,19.980198019801982C6.416666666666667,19.905940594059405,7.833333333333333,19.83168316831683,9.25,19.62376237623762C10.666666666666666,19.415841584158414,12.083333333333334,18.85148514851485,13.5,18.73267326732673C14.916666666666666,18.613861386138613,16.333333333333332,18.673267326732674,17.75,18.554455445544555C19.166666666666668,18.435643564356436,20.583333333333332,16.460396039603964,22,16.460396039603964C23.416666666666668,16.460396039603964,24.833333333333332,16.63861386138614,26.25,16.995049504950494C27.666666666666668,17.351485148514847,29.083333333333332,20.603960396039607,30.5,20.603960396039607C31.916666666666668,20.603960396039607,33.333333333333336,19.831683168316825,34.75,19.62376237623762C36.166666666666664,19.415841584158418,37.583333333333336,19.452970297029704,39,19.311881188118814C40.416666666666664,19.170792079207924,41.833333333333336,19.133663366336634,43.25,18.777227722772274C44.666666666666664,18.420792079207914,46.083333333333336,10,47.5,10C48.91666666666667,10,50.333333333333336,10.594059405940593,51.75000000000001,11.559405940594061C53.16666666666667,12.524752475247526,54.583333333333336,15.198019801980195,56,15.79207920792079C57.416666666666664,16.386138613861384,58.833333333333336,16.08910891089109,60.25,16.683168316831683C61.666666666666664,17.277227722772277,63.083333333333336,18.829207920792076,64.5,19.62376237623762C65.91666666666667,20.418316831683168,67.33333333333333,21.45049504950495,68.75,21.45049504950495C70.16666666666667,21.45049504950495,71.58333333333333,19.475247524752476,73,18.73267326732673C74.41666666666667,17.990099009900987,75.83333333333333,16.995049504950494,77.25,16.995049504950494C78.66666666666667,16.995049504950494,80.08333333333333,17.084158415841582,81.5,17.262376237623762C82.91666666666667,17.440594059405942,84.33333333333333,17.811881188118807,85.75,18.509900990099005C87.16666666666667,19.207920792079204,88.58333333333333,20.329207920792076,90,21.45049504950495" stroke-dasharray="99.05565643310547" stroke-dashoffset="0"/><circle fill="#6c757d" r="2.5" cx="90" cy="21.45049504950495" style="opacity: 1;"/></svg>