<svg xmlns="http://www.w3.org/2000/svg" width="100" height="75" viewBox="0 0 100 75" preserveAspectRatio="xMidYMid meet"><path fill="none" stroke="#007bff99" stroke-width="2.5" d="M5,56.974231544692444C6.416666666666667,64.98711577234621,7.833333333333333,73,9.25,73C10.666666666666666,73,12.083333333333334,63.17502918184713,13.5,59.21603409854622C14.916666666666666,55.257039015245304,16.333333333333332,49.24602950019454,17.75,49.24602950019454C19.166666666666668,49.24602950019454,20.583333333333332,51.43824944289201,22,52.275582752644056C23.416666666666668,53.1129160623961,24.833333333333332,53.923136783276156,26.25,54.27002935870681C27.666666666666668,54.61692193413746,29.083333333333332,54.79036822185278,30.5,54.79036822185278C31.916666666666668,54.79036822185278,33.333333333333336,50.294506738353796,34.75,50.294506738353796C36.166666666666664,50.294506738353796,37.583333333333336,65.39659014537865,39,65.39659014537865C40.416666666666664,65.39659014537865,41.833333333333336,51.47780411021895,43.25,50.26108025892257C44.666666666666664,49.04435640762619,46.083333333333336,48.435994481978,47.5,48.435994481978C48.91666666666667,48.435994481978,50.333333333333336,49.6259771497294,51.75000000000001,49.6259771497294C53.16666666666667,49.6259771497294,54.583333333333336,47.40553040217892,56,46.60756605709031C57.416666666666664,45.8096017120017,58.833333333333336,45.26902125853348,60.25,44.83819107919776C61.666666666666664,44.40736089986205,63.083333333333336,44.022584981076015,64.5,44.022584981076015C65.91666666666667,44.022584981076015,67.33333333333333,45.312289979130554,68.75,46.83375190124155C70.16666666666667,48.35521382335254,71.58333333333333,53.151356513741995,73,53.151356513741995C74.41666666666667,53.151356513741995,75.83333333333333,47.05770931343072,77.25,47.05770931343072C78.66666666666667,47.05770931343072,80.08333333333333,47.438771178946624,81.5,47.438771178946624C82.91666666666667,47.438771178946624,84.33333333333333,46.22501857026634,85.75,45.43875349297866C87.16666666666667,44.65248841569098,88.58333333333333,43.68683456545577,90,42.72118071522055" stroke-dasharray="153.1382598876953" stroke-dashoffset="0"/><circle fill="#007bff" r="2.5" cx="90" cy="42.72118071522055" style="opacity: 1;"/></svg>