<svg xmlns="http://www.w3.org/2000/svg" width="100" height="75" viewBox="0 0 100 75" preserveAspectRatio="xMidYMid meet"><path fill="none" stroke="#28a74599" stroke-width="2.5" d="M5,12.25327603212625C6.416666666666667,11.126638016063126,7.833333333333333,10,9.25,10C10.666666666666666,10,12.083333333333334,12.086503687003898,13.5,12.684796392842046C14.916666666666666,13.283089098680193,16.333333333333332,13.589756235028883,17.75,13.589756235028883C19.166666666666668,13.589756235028883,20.583333333333332,13.160126344464796,22,12.96195575595322C23.416666666666668,12.763785167441643,24.833333333333332,12.40073270395942,26.25,12.40073270395942C27.666666666666668,12.40073270395942,29.083333333333332,12.453830256916067,30.5,12.560025362829363C31.916666666666668,12.666220468742658,33.333333333333336,15.20832746230802,34.75,15.20832746230802C36.166666666666664,15.20832746230802,37.583333333333336,12.637945610821474,39,12.637945610821474C40.416666666666664,12.637945610821474,41.833333333333336,15.200436804283502,43.25,15.200436804283502C44.666666666666664,15.200436804283502,46.083333333333336,13.945329012258698,47.5,13.945329012258698C48.91666666666667,13.945329012258698,50.333333333333336,14.741956695317267,51.75000000000001,14.803438072424965C53.16666666666667,14.864919449532664,54.583333333333336,14.834178760978816,56,14.895660138086514C57.416666666666664,14.957141515194213,58.833333333333336,17.502536282936454,60.25,17.541003240805974C61.666666666666664,17.579470198675494,63.083333333333336,17.560236719740736,64.5,17.598703677610256C65.91666666666667,17.637170635479777,67.33333333333333,21.058757221361137,68.75,21.058757221361137C70.16666666666667,21.058757221361137,71.58333333333333,14.553896012399605,73,14.553896012399605C74.41666666666667,14.553896012399605,75.83333333333333,15.073775304119113,77.25,15.508172467239682C78.66666666666667,15.94256963036025,80.08333333333333,16.742402893241277,81.5,17.16027899112301C82.91666666666667,17.578155089004746,84.33333333333333,17.4453290122587,85.75,18.01542905453008C87.16666666666667,18.585529096801462,88.58333333333333,19.608109060166267,90,20.630689023531072" stroke-dasharray="96.79779052734375" stroke-dashoffset="0"/><circle fill="#28a745" r="2.5" cx="90" cy="20.630689023531072" style="opacity: 1;"/></svg>