<svg xmlns="http://www.w3.org/2000/svg" width="100" height="75" viewBox="0 0 100 75" preserveAspectRatio="xMidYMid meet"><path fill="none" stroke="#ff073a99" stroke-width="2.5" d="M5,12.83571782423462C6.416666666666667,15.899891013573765,7.833333333333333,18.96406420291291,9.25,18.96406420291291C10.666666666666666,18.96406420291291,12.083333333333334,16.10233825423561,13.5,14.63714455563262C14.916666666666666,13.171950857029628,16.333333333333332,10.17290201129496,17.75,10.17290201129496C19.166666666666668,10.17290201129496,20.583333333333332,10.845680174378284,22,11.061131477261469C23.416666666666668,11.276582780144654,24.833333333333332,11.305711879520459,26.25,11.465609828594074C27.666666666666668,11.62550777766769,29.083333333333332,11.792792034083032,30.5,12.020519171703164C31.916666666666668,12.248246309323296,33.333333333333336,12.291003665907066,34.75,12.83197265431487C36.166666666666664,13.372941642722672,37.583333333333336,18.03526206281581,39,18.03526206281581C40.416666666666664,18.03526206281581,41.833333333333336,14.109387694441693,43.25,12.770177350639058C44.666666666666664,11.430967006836422,46.083333333333336,10,47.5,10C48.91666666666667,10,50.333333333333336,11.770841177053402,51.75000000000001,11.770841177053402C53.16666666666667,11.770841177053402,54.583333333333336,10.279639354007726,56,10.279639354007726C57.416666666666664,10.279639354007726,58.833333333333336,12.691528782324381,60.25,12.691528782324381C61.666666666666664,12.691528782324381,63.083333333333336,12.345724759734468,64.5,12.345724759734468C65.91666666666667,12.345724759734468,67.33333333333333,18.33050629148915,68.75,18.33050629148915C70.16666666666667,18.33050629148915,71.58333333333333,14.745130288318636,73,13.58350341821064C74.41666666666667,12.421876548102643,75.83333333333333,11.360745070841176,77.25,11.360745070841176C78.66666666666667,11.360745070841176,80.08333333333333,13.67026652135143,81.5,13.67026652135143C82.91666666666667,13.67026652135143,84.33333333333333,13.648419696819577,85.75,13.648419696819577C87.16666666666667,13.648419696819577,88.58333333333333,14.56224115723769,90,15.476062617655803" stroke-dasharray="107.68418884277344" stroke-dashoffset="0"/><circle fill="#ff073a" r="2.5" cx="90" cy="15.476062617655803" style="opacity: 1;"/></svg>